<?xml version="1.0" standalone="no"?>
<!DOCTYPE svg PUBLIC "-//W3C//DTD SVG 20010904//EN"
 "http://www.w3.org/TR/2001/REC-SVG-20010904/DTD/svg10.dtd">
<svg version="1.0" xmlns="http://www.w3.org/2000/svg"
 width="281.000000pt" height="75.000000pt" viewBox="0 0 281.000000 75.000000"
 preserveAspectRatio="xMidYMid meet">

<g transform="translate(0.000000,75.000000) scale(0.100000,-0.100000)"
fill="#000000" stroke="none">
<path d="M0 375 l0 -375 1379 0 1378 0 27 26 26 27 0 322 0 322 -26 27 -27 26
-1378 0 -1379 0 0 -375z m686 136 c109 -49 125 -194 29 -267 -76 -58 -189 -31
-232 56 -13 24 -23 56 -23 70 0 49 42 113 90 138 54 27 82 27 136 3z m471
-141 c38 -99 36 -90 20 -90 -7 0 -18 14 -24 30 -10 26 -16 30 -48 30 -31 0
-37 -4 -46 -30 -6 -16 -17 -30 -25 -30 -14 0 -14 2 41 138 25 62 43 52 82 -48z
m153 2 l0 -89 -39 -1 c-31 -1 -44 3 -55 20 -39 55 3 134 57 106 14 -7 17 -4
17 22 0 16 5 30 10 30 6 0 10 -36 10 -88z m140 0 l0 -88 -37 -1 c-50 -2 -73
20 -73 68 0 48 35 78 69 59 19 -10 21 -8 21 20 0 16 5 30 10 30 6 0 10 -36 10
-88z m140 -2 c0 -73 -3 -90 -15 -90 -12 0 -15 17 -15 90 0 73 3 90 15 90 12 0
15 -17 15 -90z m74 37 c8 -6 8 -10 -1 -14 -8 -3 -13 -23 -13 -48 0 -26 5 -45
13 -48 6 -2 9 -8 5 -12 -4 -4 -14 -5 -23 -2 -11 5 -15 20 -15 56 0 30 -5 52
-12 55 -10 5 -10 7 0 12 6 3 12 14 12 23 0 28 15 35 19 9 1 -12 8 -27 15 -31z
m121 -12 c40 -40 33 -55 -26 -55 -52 0 -61 -12 -26 -34 12 -8 22 -7 37 2 31
19 45 14 25 -8 -33 -37 -94 -21 -110 29 -8 27 11 70 37 81 34 13 37 12 63 -15z
m223 -52 c2 -39 -1 -63 -8 -63 -5 0 -10 21 -10 49 0 57 -19 81 -44 56 -10 -10
-16 -33 -16 -61 0 -24 -4 -44 -10 -44 -5 0 -10 24 -10 54 0 36 -4 56 -13 59
-26 10 -41 -11 -42 -59 -1 -27 -6 -49 -13 -52 -8 -2 -12 15 -12 60 l0 64 88 0
87 -1 3 -62z m120 48 c4 -10 0 -12 -14 -6 -31 12 -49 11 -49 -4 0 -7 16 -18
35 -25 40 -13 51 -43 24 -63 -26 -19 -58 -16 -79 7 -20 22 -6 27 24 8 19 -11
51 -5 51 10 0 5 -18 14 -40 21 -32 9 -40 17 -40 35 0 12 3 26 7 30 12 12 76 2
81 -13z"/>
<path d="M552 490 c-99 -60 -94 -192 10 -246 60 -31 139 -6 178 58 71 117 -71
259 -188 188z m78 -80 c0 -27 3 -30 30 -30 17 0 30 -4 30 -10 0 -5 -13 -10
-30 -10 -27 0 -30 -3 -30 -30 0 -16 -4 -30 -10 -30 -5 0 -10 14 -10 30 0 27
-3 30 -30 30 -16 0 -30 5 -30 10 0 6 14 10 30 10 27 0 30 3 30 30 0 17 5 30
10 30 6 0 10 -13 10 -30z"/>
<path d="M1091 399 c-14 -41 -15 -39 15 -39 24 0 25 3 19 28 -10 42 -22 46
-34 11z"/>
<path d="M1224 366 c-3 -13 -1 -34 6 -46 22 -41 69 -6 56 43 -9 36 -53 38 -62
3z"/>
<path d="M1367 383 c-11 -11 -8 -58 5 -71 18 -18 36 -15 48 9 17 32 4 69 -24
69 -12 0 -26 -3 -29 -7z"/>
<path d="M1717 384 c-15 -16 -5 -24 29 -24 24 0 34 4 32 13 -5 13 -50 22 -61
11z"/>
</g>
</svg>
