<?xml version="1.0" standalone="no"?>
<!DOCTYPE svg PUBLIC "-//W3C//DTD SVG 20010904//EN"
 "http://www.w3.org/TR/2001/REC-SVG-20010904/DTD/svg10.dtd">
<svg version="1.0" xmlns="http://www.w3.org/2000/svg"
 width="282.000000pt" height="75.000000pt" viewBox="0 0 282.000000 75.000000"
 preserveAspectRatio="xMidYMid meet">

<g transform="translate(0.000000,75.000000) scale(0.100000,-0.100000)"
fill="#000000" stroke="none">
<path d="M12 697 c-17 -72 -17 -572 0 -644 l13 -53 1371 0 1372 0 26 31 26 31
0 313 0 313 -26 31 -26 31 -1372 0 -1371 0 -13 -53z m616 -187 c12 -13 25 -18
36 -14 24 9 58 -25 52 -51 -3 -14 2 -27 14 -38 26 -22 25 -51 0 -75 -13 -12
-18 -25 -14 -36 9 -24 -25 -58 -51 -52 -14 3 -27 -2 -38 -14 -22 -26 -51 -25
-75 0 -12 13 -25 18 -36 14 -24 -9 -58 25 -52 51 3 14 -2 27 -14 38 -25 21
-25 53 0 74 12 11 17 24 14 38 -6 26 28 60 52 51 11 -4 24 1 36 14 10 11 27
20 38 20 11 0 28 -9 38 -20z m457 -60 c-3 -5 -28 -10 -56 -10 -45 0 -49 -2
-49 -24 0 -23 5 -25 48 -28 26 -2 47 -7 47 -13 0 -5 -21 -11 -47 -13 -46 -3
-48 -5 -48 -33 0 -29 1 -29 55 -29 32 0 55 -4 55 -10 0 -7 -25 -10 -67 -8
l-68 3 -3 35 c-2 19 -1 59 3 88 l6 52 65 0 c41 0 63 -4 59 -10z m135 -78 l0
-89 -39 -1 c-31 -1 -44 3 -55 20 -39 55 3 134 57 106 14 -7 17 -4 17 22 0 16
5 30 10 30 6 0 10 -36 10 -88z m60 78 c0 -5 -4 -10 -10 -10 -5 0 -10 5 -10 10
0 6 5 10 10 10 6 0 10 -4 10 -10z m74 -43 c8 -6 8 -10 -1 -14 -8 -3 -13 -23
-13 -48 0 -26 5 -45 13 -48 6 -2 9 -8 5 -12 -4 -4 -14 -5 -23 -2 -11 5 -15 20
-15 56 0 30 -5 52 -12 55 -10 5 -10 7 0 12 6 3 12 14 12 23 0 28 15 35 19 9 1
-12 8 -27 15 -31z m181 11 c55 -136 55 -138 41 -138 -8 0 -19 14 -25 30 -9 26
-15 30 -46 30 -32 0 -38 -4 -48 -30 -6 -16 -18 -30 -25 -30 -10 0 -12 6 -7 18
4 9 18 46 32 82 13 35 27 68 29 72 12 19 33 5 49 -34z m765 13 c0 -11 6 -22
13 -25 10 -5 10 -7 0 -12 -8 -3 -13 -24 -13 -49 0 -26 5 -45 13 -48 6 -2 9 -8
5 -12 -4 -4 -14 -5 -23 -2 -11 5 -15 20 -15 56 0 27 -5 51 -10 53 -7 2 -6 13
2 30 15 32 28 36 28 9z m-608 -33 c17 -17 18 -23 8 -26 -8 -3 -16 0 -18 7 -2
6 -14 11 -28 11 -17 0 -25 -7 -30 -25 -13 -51 22 -81 56 -50 26 24 38 11 15
-15 -41 -45 -99 -10 -93 56 2 29 9 42 28 51 33 17 37 16 62 -9z m119 3 c28
-22 20 -38 -9 -20 -33 20 -54 5 -50 -38 3 -43 33 -58 55 -27 16 22 31 9 17
-14 -27 -43 -104 -11 -104 43 0 25 39 75 58 75 6 0 20 -9 33 -19z m-531 -56
c0 -37 -4 -65 -10 -65 -6 0 -10 28 -10 65 0 37 4 65 10 65 6 0 10 -28 10 -65z
m676 40 c41 -63 -33 -138 -88 -88 -20 18 -24 64 -8 94 16 29 75 26 96 -6z m64
-25 c0 -36 4 -52 15 -56 26 -10 45 16 45 62 0 24 5 44 10 44 6 0 10 -28 10
-65 0 -37 -4 -65 -10 -65 -5 0 -10 5 -10 11 0 8 -5 8 -15 -1 -8 -7 -25 -10
-40 -6 -23 6 -25 11 -25 66 0 33 4 60 10 60 6 0 10 -23 10 -50z m212 38 c11
-19 10 -118 -2 -118 -5 0 -10 22 -10 48 0 55 -14 76 -42 61 -14 -7 -18 -21
-18 -59 0 -28 -4 -50 -10 -50 -6 0 -10 28 -10 63 l0 64 42 1 c24 1 45 -3 50
-10z"/>
<path d="M557 490 c-9 -11 -23 -17 -32 -14 -21 9 -47 -16 -41 -39 2 -11 -3
-25 -15 -35 -10 -9 -19 -23 -19 -32 0 -9 9 -23 19 -32 12 -10 17 -24 15 -35
-6 -23 20 -48 41 -39 9 3 23 -3 32 -14 10 -11 24 -20 33 -20 9 0 23 9 33 20 9
11 23 17 32 14 21 -9 47 16 41 39 -2 11 3 25 15 35 10 9 19 23 19 32 0 9 -9
23 -19 32 -12 10 -17 24 -15 35 6 23 -20 48 -41 39 -9 -3 -23 3 -32 14 -22 25
-44 25 -66 0z m65 -87 c22 -20 23 -41 1 -65 -20 -22 -41 -23 -65 -1 -22 20
-23 41 -1 65 20 22 41 23 65 1z"/>
<path d="M564 386 c-10 -26 4 -48 28 -44 33 4 33 52 0 56 -13 2 -25 -3 -28
-12z"/>
<path d="M1134 366 c-3 -13 -1 -34 6 -46 22 -41 69 -6 56 43 -9 36 -53 38 -62
3z"/>
<path d="M1491 407 c-16 -41 -14 -47 15 -47 22 0 24 3 18 23 -14 48 -22 54
-33 24z"/>
<path d="M1887 388 c-20 -10 -23 -58 -5 -76 20 -20 48 -14 58 14 17 43 -17 83
-53 62z"/>
</g>
</svg>
